inDegrees=no
num_controls=7
num_derivatives=13
num_iterations=129
num_multipliers=7
num_parameters=0
num_slacks=7
num_states=26
objective=5.926656
objective_accelerations=0.792960
objective_balance=0.006775
objective_effort=0.531183
objective_height=4.525913
objective_ligament=0.069825
solver_duration=1083.454649
status=Solve_Succeeded
success=true
DataType=double
version=3
OpenSimVersion=4.4-2022-07-23-0e9fedc
endheader
time	/jointset/ground_pelvis/pelvis_tilt/value	/jointset/ground_pelvis/pelvis_tx/value	/jointset/ground_pelvis/pelvis_ty/value	/jointset/hip_r/hip_flexion_r/value	/jointset/hip_r/hip_adduction_r/value	/jointset/hip_r/hip_rotation_r/value	/jointset/back/lumbar_extension/value	/jointset/patellofemoral_r/patellar_flexion_r/value	/jointset/knee_r/knee_flexion_r/value	/jointset/knee_r/knee_adduction_r/value	/jointset/knee_r/knee_rotation_r/value	/jointset/ankle_r/ankle_angle_r/value	/jointset/subtalar_r/subtalar_angle_r/value	/jointset/ground_pelvis/pelvis_tilt/speed	/jointset/ground_pelvis/pelvis_tx/speed	/jointset/ground_pelvis/pelvis_ty/speed	/jointset/hip_r/hip_flexion_r/speed	/jointset/hip_r/hip_adduction_r/speed	/jointset/hip_r/hip_rotation_r/speed	/jointset/back/lumbar_extension/speed	/jointset/patellofemoral_r/patellar_flexion_r/speed	/jointset/knee_r/knee_flexion_r/speed	/jointset/knee_r/knee_adduction_r/speed	/jointset/knee_r/knee_rotation_r/speed	/jointset/ankle_r/ankle_angle_r/speed	/jointset/subtalar_r/subtalar_angle_r/speed	/forceset/tau_hip_flexion_r	/forceset/tau_hip_adduction_r	/forceset/tau_hip_rotation_r	/forceset/tau_knee_flexion_r	/forceset/tau_ankle_angle_r	/forceset/tau_subtalar_angle_r	/forceset/tau_lumbar_extension	lambda_cid13_p0	lambda_cid14_p0	lambda_cid14_p1	lambda_cid14_p2	lambda_cid14_p3	lambda_cid14_p4	lambda_cid14_p5	/jointset/ground_pelvis/pelvis_tilt/accel	/jointset/ground_pelvis/pelvis_tx/accel	/jointset/ground_pelvis/pelvis_ty/accel	/jointset/hip_r/hip_flexion_r/accel	/jointset/hip_r/hip_adduction_r/accel	/jointset/hip_r/hip_rotation_r/accel	/jointset/back/lumbar_extension/accel	/jointset/patellofemoral_r/patellar_flexion_r/accel	/jointset/knee_r/knee_flexion_r/accel	/jointset/knee_r/knee_adduction_r/accel	/jointset/knee_r/knee_rotation_r/accel	/jointset/ankle_r/ankle_angle_r/accel	/jointset/subtalar_r/subtalar_angle_r/accel	gamma_cid13_p0	gamma_cid14_p0	gamma_cid14_p1	gamma_cid14_p2	gamma_cid14_p3	gamma_cid14_p4	gamma_cid14_p5
0	0.006168871531672542	0.1247184526918684	0.9351087776354792	0.1934208783645156	-0.2053913337232571	-0.2325491688356624	-0.2903791543005566	0.2311793314021632	0.2311793314021609	0.08405960225250839	0.1506045767823943	0.08934340440958972	0.09203846188897165	0	0	0	0	0	0	0	0	0	0	0	0	0	0.1188173302061462	-0.04525759281214783	0.001475096376601009	-0.2394424561022928	0.1116515128728688	-0.05499087710563923	-0.03949567306492972	-29.13155413136402	-8.735488073846431	-22.091954327478	0.1516376393750263	9.687019298863515	-601.90274735105	53.49306046266555	-2.436529476967146	-2.215565745987385	-1.042353084541661	11.79769037850033	-0.1193098028092278	1.873204268288154	-6.742878038464172	11.69427471964191	11.69427471964101	-2.775567054304643	0.8640459328800094	2.976188325396141	0.7627474946074561	2.662170522831277e-08	1.759733673494347e-08	-2.353894623367716e-07	1.688707815525565e-07	5.47566653964371e-09	1.640820520262592e-07	-1.981309153962436e-07
0.01	0.00605447668787436	0.1246092536626983	0.9350580946895298	0.1939946007823125	-0.2053962067756657	-0.2324555216403437	-0.2907187068721831	0.2317525141603116	0.2317525141602357	0.08392165818288572	0.1506445206774464	0.08948933872221709	0.09207705151619691	-0.02279502892429488	-0.02171127400450252	-0.01010906528957073	0.1142051575267291	-0.0009832441614646527	0.01864656267128087	-0.06745838062639446	0.1141082916495703	0.1141082916495689	-0.02742865047704259	0.007938880681860917	0.02907879025886085	0.007675534446649685	0.1149231736983494	-0.05380075409469354	0.001690526262995163	-0.236856645427849	0.1069327027768932	-0.04660413244464491	-0.03577321806308835	-29.13925829942244	-9.792589198665224	-18.44630952822261	-0.6447448680790615	9.207184536636221	-603.6073654229041	60.94391303081926	-2.188402125689938	-2.129627358969912	-0.9910218496489099	11.15102848871055	-0.08913459467058325	1.847986977244292	-6.679498018823338	11.18986206790094	11.18986206790161	-2.702512648565912	0.7513586562959773	2.857518795533757	0.7635807099740874	3.337441487120676e-08	-5.14060820190416e-09	-2.857938654279316e-07	1.448944870833245e-07	2.906353935800724e-08	-8.752028626800272e-09	-1.952821988432799e-07
0.02	0.005714649049683745	0.1242867980672254	0.9349071533709866	0.1956941947851297	-0.2054111728440896	-0.232177887876216	-0.2917192792389166	0.2334509309709151	0.2334509309709304	0.083514227887965	0.1507623632835368	0.08992281982129179	0.09219112134594488	-0.04508655886967873	-0.0426513132605528	-0.02005167451878216	0.2251743170115152	-0.002018603197302052	0.03679731377040426	-0.1322039590166035	0.2250468105105871	0.2250468105105886	-0.05389724512061084	0.01557974218197556	0.05750935729382288	0.01509604050452892	0.1110290171905308	-0.06234391537680475	0.001905956150183629	-0.2342708347534579	0.1022138926810282	-0.03821738778309017	-0.03205076306140103	-29.16175016304145	-10.7580362249234	-14.79699999895458	-1.427566020154547	8.740792711294619	-603.8642262839505	68.15673074899574	-2.335829681184545	-2.06131879629724	-1.00906187246978	11.15049077011172	-0.1297327776837922	1.774041953856665	-6.200317591226822	11.06032016193127	11.06032016193122	-2.583555887609781	0.8044420965307756	2.846543680616058	0.711741816853247	4.012712451410075e-08	-2.787855313875179e-08	-3.361982685190916e-07	1.209181926140924e-07	5.265141217637077e-08	-1.815861092798598e-07	-1.924334822903162e-07
0.03	0.005154022521433769	0.1237588040853043	0.9346572361498651	0.1984879024205882	-0.2054368289186432	-0.2317215226119635	-0.2933531690217938	0.2362431173692393	0.236243117369276	0.08284706990804422	0.150955229372714	0.09063736278920768	0.09237805316581864	-0.06694096832884266	-0.06281704335715875	-0.02993275926138163	0.3330186017299849	-0.003111567510376841	0.05438038776705841	-0.1941228595388412	0.3328627775714675	0.3328627775714679	-0.07938846007938581	0.02292414500692815	0.08529215101618266	0.02226256354593999	0.1062056217751571	-0.05842530937570176	0.002030798714739594	-0.2313522214285021	0.09990670689458876	-0.03924465875125292	-0.02779477083984275	-29.19796006581185	-11.53659939156817	-15.36369020604721	-1.355238575116632	8.368326732486061	-604.0412932050714	66.24425643001076	-2.095576702875201	-1.974623526402361	-0.9778172240244015	10.51910543184116	-0.09894431053114208	1.736169036917656	-6.120005578984307	10.56307318781376	10.56307318781406	-2.510062537306839	0.6890674696529301	2.728089539419637	0.7149057207625807	4.138683368645002e-08	-4.693377943079869e-08	-3.494553666336451e-07	5.343715236869117e-08	6.947191056568401e-08	-3.314531619113402e-07	-1.460023035247486e-07
0.04	0.004377785873625243	0.1230330681204056	0.9343084709915422	0.2023435945250289	-0.2054733878467946	-0.231092180824867	-0.2955927136691576	0.240097631080125	0.2400976310801392	0.08192936813102446	0.1512194651089558	0.09162652215862416	0.09263580985070195	-0.08820858277157255	-0.08219970985607672	-0.03982126195903658	0.4375712108135821	-0.004199173919905944	0.07139261833762792	-0.2533349319115288	0.4375122730182306	0.4375122730182298	-0.1040060045299697	0.02985367159889323	0.1124326375934759	0.02926101350644356	0.1013822263597679	-0.05450670337466261	0.002155641279192003	-0.2284336081035877	0.09759952110810421	-0.04027192971950887	-0.02353877861826648	-29.24625821709062	-12.23216238846853	-15.92911811948184	-1.267953585793438	7.996916836492078	-602.9085213130262	64.11753768997605	-2.218470677897366	-1.904706076759864	-1.01054546348086	10.49215564313718	-0.1286611969746791	1.659873268639747	-5.658951961316548	10.42702583910785	10.42702583910776	-2.408821785971585	0.721466849933292	2.718082251602521	0.6781272006716599	4.253328511713857e-08	-6.591307337965384e-08	-3.619465409342479e-07	-1.494089294426e-08	8.615287546161477e-08	-4.808466675733036e-07	-9.867251729087984e-08
0.05	0.003391178389855338	0.1221172762917467	0.933860427486783	0.2072294501730252	-0.205521165333451	-0.2302956714058769	-0.298410596969919	0.2449832883283695	0.2449832883283755	0.08077060041878018	0.1515511563954373	0.09288370234721922	0.09296221630485946	-0.1090158100605264	-0.1008405449396515	-0.04981272520889046	0.5390758010588504	-0.005354871707992273	0.0877986908780066	-0.3098318740060269	0.5390974508024879	0.5390974508024809	-0.127599021830739	0.03641367218570456	0.1388776944593259	0.03598900960367128	0.09605609207466873	-0.05333270818857498	0.002365023383756899	-0.2254876180669127	0.09398317788678902	-0.03870741786977919	-0.01910601688819803	-29.30477544096705	-13.19261984633424	-15.36367142748117	-1.419952043078577	7.862035094397944	-601.8114584465982	64.3275183206126	-1.997274667323898	-1.826038218782554	-0.9973370646644917	9.900992558463974	-0.1088496817180773	1.614398430679624	-5.583587197673872	9.945996358229616	9.945996358229205	-2.312321684420199	0.6126337023857227	2.588866849448366	0.6653880647279099	4.077252429377845e-08	-8.063130579002787e-08	-3.702791928421116e-07	-1.379179834061519e-07	9.794571088273964e-08	-5.975465431367887e-07	-1.105259884399519e-08
0.06	0.002199413450566661	0.1210186229133269	0.9333116912877384	0.2131146280920906	-0.2055804649203922	-0.2293384164247002	-0.3017811540644711	0.2508691438764711	0.2508691438764836	0.07938034653713325	0.1519463210956748	0.09440156299354235	0.09335495317008509	-0.1292400738665432	-0.1187720198082222	-0.05995980081611586	0.6374356650338509	-0.006503593975813615	0.1035417307760915	-0.3638696906667926	0.6375519329925334	0.637551932992524	-0.1503032384231421	0.04254835434573268	0.1645687291400522	0.04252709572008317	0.09072995778952572	-0.05215871300237881	0.002574405488468645	-0.2225416280303023	0.09036683466547506	-0.0371429060199163	-0.01467325515818011	-29.37120487304071	-14.07876226502214	-14.79548371657192	-1.560654808218269	7.71320562701613	-599.5563627118505	64.36759887109784	-2.101877981309638	-1.762834033759207	-1.041667934955155	9.863210389083573	-0.1272660929216995	1.527266740180981	-5.167126874569869	9.80088672026554	9.800886720266146	-2.231061644298344	0.6364031645766487	2.567277814577667	0.64014520450844	3.888935453340577e-08	-9.517012508299213e-08	-3.78436749070281e-07	-2.631939810322098e-07	1.095327303259779e-07	-7.128698448013902e-07	7.826374622238482e-08
0.07000000000000001	0.0008076898683897353	0.1197442528197024	0.9326604158893285	0.2199685421115326	-0.2056516261288512	-0.2282266344513275	-0.3056790753379954	0.2577243925558931	0.2577243925559052	0.07776836582120611	0.152400521589458	0.09617264610188736	0.09381164380521505	-0.1490043219511325	-0.1359763258990564	-0.07033772682776324	0.732815671865047	-0.007724578886367752	0.118702399658863	-0.4153029809964866	0.7329755531597353	0.7329755531597434	-0.1719449525519875	0.04820748207640044	0.189526948530225	0.04878580129272386	0.08500118578277295	-0.05033961673327092	0.002823736863141929	-0.2201467189640163	0.08741632143917327	-0.03604861359112745	-0.009988521606999222	-29.44307256072567	-14.79620034078256	-14.42433910468781	-1.644397317603091	7.413643486295143	-597.5644801172501	63.99871812614005	-1.898638306635188	-1.680355897331315	-1.04236610035146	9.295674574517761	-0.1189887797055348	1.493598820755816	-5.069692655494218	9.334754450416792	9.334754450419432	-2.108616696196228	0.5179887299356274	2.441960870566463	0.6148586461339858	3.2935740244202e-08	-1.011098428690256e-07	-3.155296513332253e-07	-2.971806333708696e-07	1.106529388432757e-07	-7.582514050387131e-07	1.230719250427332e-07
0.08	-0.0007786642115863422	0.1183016142650527	0.9319040589975843	0.227760311948135	-0.2057348920043287	-0.2269666194174307	-0.3100789820234904	0.2655182083940614	0.2655182083940698	0.07594438988410791	0.1529087775911266	0.09818968477800288	0.09433014657856958	-0.1681661734196635	-0.15242571201325	-0.08097609948296521	0.8250068284714974	-0.008924527380222117	0.1331883428788512	-0.4642667730591558	0.8252653647456998	0.825265364745726	-0.1927022826415598	0.05335945591200848	0.2137598426935662	0.05488952336504113	0.07927241377591196	-0.04852052046423783	0.003073068238131157	-0.2177518098978288	0.08446580821280548	-0.03495432116245538	-0.005303788055856449	-29.51755317368973	-15.44879154593825	-14.05105749801512	-1.717951309986835	7.085586971054393	-594.5709339177017	63.50697317655001	-1.98139865809767	-1.611850038431155	-1.093757263666068	9.225440344134405	-0.12305880958176	1.392321607624349	-4.673227221164725	9.174125004018071	9.174125004018801	-2.054184836443719	0.5349723855647065	2.422212769211278	0.6091485044437216	2.671951663055753e-08	-1.064947799126765e-07	-2.480377372113165e-07	-3.252776505296974e-07	1.110978692363192e-07	-7.991205948613729e-07	1.650086092665632e-07
0.09	-0.00255434910507386	0.116698230926089	0.9310397640084873	0.2364593197845518	-0.2058301768818751	-0.2255655444314058	-0.314955544775093	0.2742200357014217	0.2742200357014197	0.07391730616000654	0.1534665941869287	0.1004456266305336	0.09490883717766777	-0.1868673641870685	-0.1681241617832002	-0.09193790577332067	0.9142653020733783	-0.01013350757318159	0.1469179614499771	-0.5106491558645249	0.9145827575936204	0.9145827575936184	-0.2125538422357449	0.0581129519973472	0.23730452147023	0.06081698214710862	0.07324621226859633	-0.04691594665534733	0.003382133891952917	-0.2158363576836505	0.08173125490706883	-0.03371167281751323	-0.0004523035632210943	-29.59175026620578	-16.04622025050935	-13.60852542704524	-1.797019027492092	6.73456336424724	-591.9228947060811	63.21052614042421	-1.79894952562111	-1.529801120175597	-1.105803911862397	8.696634583480208	-0.1200504768089746	1.346935786525622	-4.561250600382026	8.732940312068243	8.732940312063711	-1.92661391723083	0.4318491305077707	2.30199870575803	0.5797271973220425	1.755083239851908e-08	-1.064772292654704e-07	-1.425833574600026e-07	-3.270391985352905e-07	1.043906268044654e-07	-8.016045072936984e-07	2.014571196766303e-07
